PathFileType	4	(X/Y/Z)	/Users/itak/Documents/Research/Walk-IL/dataset/trc/00011_00004.trc
DataRate	CameraRate	NumFrames	NumMarkers	Units	OrigDataRate	OrigDataStartFrame	OrigNumFrames
100.000000	100.000000	4	53	mm	100.000000	344	551
Frame#	Time	RPSI			LPSI			L3			STRN			T10			C7			CLAV			RBAK			LBAK			LSHO			LUPA			LAEL			LAOL			LWTS			LWPS			LFRA			LIFD			LHPS			LHTS			RSHO			RUPA			RAEL			RAOL			RWTS			RWPS			RFRA			RIFD			RHTS			RHPS			RBHD			LFHD			RFHD			LBHD			LHIP			RHIP			RASI			LASI			LKNE			LTHI			LANK			LTIP			LTOE			LMT1			LMT5			LHEE			RKNE			RTHI			RANK			RTIP			RTOE			RMT1			RMT5			RHEE			
		X1	Y1	Z1	X2	Y2	Z2	X3	Y3	Z3	X4	Y4	Z4	X5	Y5	Z5	X6	Y6	Z6	X7	Y7	Z7	X8	Y8	Z8	X9	Y9	Z9	X10	Y10	Z10	X11	Y11	Z11	X12	Y12	Z12	X13	Y13	Z13	X14	Y14	Z14	X15	Y15	Z15	X16	Y16	Z16	X17	Y17	Z17	X18	Y18	Z18	X19	Y19	Z19	X20	Y20	Z20	X21	Y21	Z21	X22	Y22	Z22	X23	Y23	Z23	X24	Y24	Z24	X25	Y25	Z25	X26	Y26	Z26	X27	Y27	Z27	X28	Y28	Z28	X29	Y29	Z29	X30	Y30	Z30	X31	Y31	Z31	X32	Y32	Z32	X33	Y33	Z33	X34	Y34	Z34	X35	Y35	Z35	X36	Y36	Z36	X37	Y37	Z37	X38	Y38	Z38	X39	Y39	Z39	X40	Y40	Z40	X41	Y41	Z41	X42	Y42	Z42	X43	Y43	Z43	X44	Y44	Z44	X45	Y45	Z45	X46	Y46	Z46	X47	Y47	Z47	X48	Y48	Z48	X49	Y49	Z49	X50	Y50	Z50	X51	Y51	Z51	X52	Y52	Z52	X53	Y53	Z53	

345	3.44	-496.7061767578125	1032.2451171875	-167.8813171386719	-536.0470581054688	1030.006225585938	-325.6857299804688	-517.8861694335938	1101.90673828125	-259.9039611816406	-284.4393310546875	1283.821899414062	-291.7706604003906	-534.8843994140625	1244.338256835938	-272.7235717773438	-477.5638122558594	1509.812744140625	-289.2763061523438	-322.2355041503906	1411.710815429688	-290.8685607910156	-530.1087036132812	1373.574951171875	-207.1962585449219	-501.0341796875	1470.312377929688	-387.9438781738281	-399.9721984863281	1474.252319335938	-463.8689270019531	-427.1470642089844	1351.663330078125	-544.5567626953125	-407.695068359375	1135.810668945312	-579.8781127929688	-469.4866943359375	1111.990356445312	-496.3492431640625	-253.1176300048828	928.697998046875	-502.596435546875	-314.1776123046875	887.0907592773438	-551.933349609375	-362.2987670898438	1028.692993164062	-580.3214111328125	-162.6970062255859	767.2616577148438	-473.1255798339844	-251.4818725585938	815.9713745117188	-542.656982421875	-198.3212585449219	849.5765991210938	-509.5003662109375	-393.3132934570312	1490.739624023438	-118.4216537475586	-408.3533935546875	1420.296264648438	-46.14884567260742	-459.4449768066406	1160.265258789062	-6.365378379821777	-460.857666015625	1124.596923828125	-99.578857421875	-349.2759094238281	890.9093627929688	-10.16921997070312	-417.8880615234375	888.25244140625	52.00822448730469	-451.3955993652344	1086.168334960938	15.95030975341797	-347.6883850097656	701.6245727539062	0.3589335978031158	-328.6484375	779.6200561523438	18.16457366943359	-387.2714233398438	786.654296875	65.17711639404297	-419.187744140625	1680.764526367188	-205.6664276123047	-244.2619323730469	1702.632568359375	-322.9873962402344	-246.0688323974609	1698.413940429688	-224.4580230712891	-424.6662902832031	1691.389404296875	-350.0749816894531	-472.871337890625	929.0083618164062	-449.3376770019531	-355.7832946777344	934.2850341796875	-94.38169860839844	-279.2803344726562	961.7540893554688	-191.7967987060547	-340.978515625	969.6902465820312	-418.3492126464844	-435.0030517578125	479.2538452148438	-413.56640625	-457.2539367675781	621.6151123046875	-443.683349609375	-694.5911865234375	51.24653625488281	-365.3431091308594	-586.7407836914062	271.1583251953125	-403.5175170898438	-476.9710998535156	39.57035446166992	-296.1265258789062	-535.7544555664062	50.16196823120117	-281.5528564453125	-570.9461669921875	36.68949127197266	-382.6537475585938	-763.5338134765625	76.73527526855469	-314.554443359375	-217.3643188476562	532.476806640625	-143.0679779052734	-295.7559204101562	782.204345703125	-96.91741943359375	-142.1141815185547	39.5699577331543	-165.6340026855469	-194.8659973144531	407.9837646484375	-140.9269409179688	71.70436859130859	125.5545272827148	-197.2713165283203	12.20077705383301	108.004768371582	-230.8755035400391	-0.882390022277832	82.06690979003906	-138.8829803466797	-195.4682922363281	25.6304931640625	-211.8035736083984	
346	3.45	-505.5565185546875	1032.645751953125	-168.4341278076172	-545.4088134765625	1030.717651367188	-326.1035766601562	-526.7830200195312	1102.669311523438	-260.3558349609375	-292.9321899414062	1284.200561523438	-292.942138671875	-543.4696655273438	1245.102661132812	-273.2768859863281	-485.6585693359375	1510.493041992188	-290.0387268066406	-330.5021667480469	1412.168701171875	-291.9393005371094	-538.314208984375	1374.292114257812	-207.8964691162109	-509.3231201171875	1471.029174804688	-388.6687316894531	-408.4098815917969	1474.884887695312	-464.8304748535156	-436.0228576660156	1352.391967773438	-545.5598754882812	-417.4002685546875	1136.27294921875	-580.73291015625	-479.4092102050781	1112.980712890625	-497.1972351074219	-265.754150390625	926.5494384765625	-504.1231689453125	-327.4593505859375	886.0667114257812	-553.4904174804688	-373.4111633300781	1028.475219726562	-581.4439697265625	-178.1536407470703	763.474609375	-475.0305786132812	-265.9435729980469	813.9298706054688	-544.4341430664062	-212.25	846.5846557617188	-511.2770385742188	-401.1915893554688	1491.225219726562	-119.3074493408203	-416.0611877441406	1420.588745117188	-47.11864471435547	-465.7720947265625	1160.064819335938	-7.607546329498291	-467.5162048339844	1124.72021484375	-100.8179550170898	-352.2785949707031	892.0546875	-13.18882942199707	-420.4910583496094	888.1372680664062	49.35942077636719	-456.8743896484375	1085.82568359375	14.43422412872314	-347.9695434570312	702.7781372070312	-3.533738374710083	-329.9277648925781	780.9880981445312	14.50604438781738	-388.3961181640625	786.935546875	61.86917877197266	-426.7148742675781	1681.409790039062	-206.5644378662109	-251.6582336425781	1702.6474609375	-323.8211059570312	-253.5073699951172	1698.413696289062	-225.3070220947266	-432.0888366699219	1692.13720703125	-350.9708862304688	-482.6471252441406	929.8900756835938	-450.0921325683594	-364.6106872558594	934.3843994140625	-95.47687530517578	-288.3941955566406	962.00439453125	-193.0632781982422	-350.6015930175781	970.4647827148438	-419.5102233886719	-442.1565246582031	480.2162170410156	-413.889892578125	-465.3258666992188	622.325439453125	-444.1943359375	-695.3472290039062	48.92523193359375	-364.9302368164062	-590.9829711914062	270.295654296875	-403.3446350097656	-477.1588439941406	39.69169998168945	-296.25634765625	-536.203369140625	49.67938995361328	-281.6249084472656	-571.3716430664062	36.55507659912109	-382.7694091796875	-764.47021484375	73.09359741210938	-313.8441467285156	-226.2477416992188	532.8334350585938	-143.5223388671875	-304.9627990722656	782.2760009765625	-97.71100616455078	-148.6322326660156	40.17854690551758	-165.3929138183594	-203.4985504150391	408.586181640625	-140.880615234375	64.89873504638672	127.9838714599609	-195.8638458251953	5.58951997756958	110.0899505615234	-229.7772674560547	-7.784443855285645	83.89305114746094	-137.8334197998047	-201.5307464599609	25.87753105163574	-211.8811187744141	
347	3.46	-514.1900634765625	1033.272094726562	-168.9530487060547	-554.5512084960938	1031.576904296875	-326.5072326660156	-535.41943359375	1103.5556640625	-260.7575988769531	-301.2728881835938	1284.804931640625	-294.0769958496094	-551.85791015625	1246.0234375	-273.6767578125	-493.688232421875	1511.355102539062	-290.6678771972656	-338.6561584472656	1412.833374023438	-292.9536743164062	-546.3735961914062	1375.190307617188	-208.3950805664062	-517.58935546875	1471.895629882812	-389.2341613769531	-416.8568115234375	1475.67431640625	-465.6983032226562	-444.9517822265625	1353.274291992188	-546.4365234375	-427.1102294921875	1136.89697265625	-581.5029296875	-489.3172607421875	1114.129272460938	-497.958740234375	-278.6056518554688	924.4130249023438	-505.67529296875	-340.9899597167969	885.1593627929688	-555.0894165039062	-384.6170349121094	1028.396362304688	-582.52783203125	-193.9667510986328	759.6868286132812	-477.0405883789062	-280.7462158203125	811.9464111328125	-546.2867431640625	-226.4851531982422	843.56103515625	-513.1031494140625	-408.8987731933594	1491.932495117188	-120.1079330444336	-423.53564453125	1421.115966796875	-47.97577667236328	-471.9957580566406	1160.103515625	-8.789726257324219	-474.1613464355469	1125.095581054688	-102.0317230224609	-355.2285766601562	893.4905395507812	-16.3138370513916	-423.0099792480469	888.2703247070312	46.60703659057617	-462.2584838867188	1085.710815429688	12.94555950164795	-348.1148376464844	704.2744140625	-7.636620044708252	-331.1165771484375	782.6738891601562	10.67927169799805	-389.4124755859375	787.4869995117188	58.38915634155273	-434.140869140625	1682.301025390625	-207.4140472412109	-258.9921264648438	1702.854125976562	-324.6566467285156	-260.85107421875	1698.623779296875	-226.1519165039062	-439.4623107910156	1693.10546875	-351.8160705566406	-492.169921875	930.8841552734375	-450.8270263671875	-373.1786499023438	934.739990234375	-96.58777618408203	-297.2915344238281	962.4616088867188	-194.3597412109375	-359.9988098144531	971.4471435546875	-420.6831665039062	-449.2686767578125	481.3548889160156	-414.0904235839844	-473.3061218261719	623.18408203125	-444.5967102050781	-695.9735717773438	46.87437057495117	-364.5988159179688	-595.1595458984375	269.7022399902344	-403.1328430175781	-477.3303527832031	39.80013275146484	-296.4001159667969	-536.5537719726562	49.302001953125	-281.6888427734375	-571.6976318359375	36.44547653198242	-382.8889770507812	-765.2357177734375	69.76217651367188	-313.2145385742188	-234.6327362060547	533.4288330078125	-143.9049072265625	-313.849609375	782.680908203125	-98.54322052001953	-156.8132629394531	40.76418304443359	-165.0567169189453	-212.0186309814453	409.3169860839844	-140.7859649658203	56.94232177734375	129.0433349609375	-194.3608856201172	-2.258163928985596	111.1197357177734	-228.5833129882812	-16.0897045135498	84.86514282226562	-136.6703796386719	-209.2663116455078	26.44330978393555	-211.8558502197266	
348	3.47	-522.6290283203125	1034.143676757812	-169.4708099365234	-563.4607543945312	1032.611572265625	-326.93212890625	-543.8019409179688	1104.578247070312	-261.1542663574219	-309.46337890625	1285.63720703125	-295.1663208007812	-560.0487670898438	1247.116943359375	-273.9635009765625	-501.6393127441406	1512.406616210938	-291.1713562011719	-346.6929626464844	1413.706420898438	-293.9156188964844	-554.2813110351562	1376.284057617188	-208.7069854736328	-525.8195190429688	1472.9248046875	-389.6473083496094	-425.297607421875	1476.622192382812	-466.4785766601562	-453.9307250976562	1354.300903320312	-547.1793823242188	-436.8238830566406	1137.6787109375	-582.1712036132812	-499.1943359375	1115.42724609375	-498.6072082519531	-291.661865234375	922.3102416992188	-507.248779296875	-354.7581176757812	884.38623046875	-556.721435546875	-395.9187316894531	1028.46240234375	-583.5592651367188	-210.1056213378906	755.92822265625	-479.1745910644531	-295.86376953125	810.0515747070312	-548.2174072265625	-241.0058746337891	840.5466918945312	-514.98828125	-416.4320678710938	1492.859497070312	-120.8280181884766	-430.7686462402344	1421.87255859375	-48.72294616699219	-478.0831909179688	1160.379272460938	-9.893754959106445	-480.7791748046875	1125.719848632812	-103.1969985961914	-358.153076171875	895.1981201171875	-19.5496768951416	-425.4460754394531	888.651611328125	43.76821136474609	-467.5242004394531	1085.82421875	11.4958324432373	-348.1730346679688	706.0992431640625	-11.94080543518066	-332.2393798828125	784.6587524414062	6.683115482330322	-390.3299865722656	788.3060913085938	54.74896240234375	-441.4655456542969	1683.434204101562	-208.2131042480469	-266.2607116699219	1703.2744140625	-325.4959106445312	-268.0994873046875	1699.0595703125	-226.9948883056641	-446.7932434082031	1694.287353515625	-352.6065673828125	-501.4161376953125	931.99853515625	-451.5424499511719	-381.5259399414062	935.3873291015625	-97.69688415527344	-305.9747619628906	963.1405639648438	-195.6482849121094	-369.1531066894531	972.6288452148438	-421.8302612304688	-456.4039916992188	482.6788635253906	-414.1446533203125	-481.2477722167969	624.2028198242188	-444.8656311035156	-696.491455078125	45.09108734130859	-364.3124389648438	-599.3304443359375	269.3804016113281	-402.8426513671875	-477.4871826171875	39.88581085205078	-296.567626953125	-536.8119506835938	49.03389358520508	-281.7368774414062	-571.9459228515625	36.36338806152344	-382.9947509765625	-765.8569946289062	66.73366546630859	-312.6099853515625	-242.4817199707031	534.2926635742188	-144.2112579345703	-322.4079895019531	783.4650268554688	-99.40642547607422	-166.7094116210938	41.3179931640625	-164.6285247802734	-220.4072875976562	410.1878967285156	-140.6532135009766	47.72698974609375	128.7934722900391	-192.8811187744141	-11.46938610076904	111.1313934326172	-227.3661804199219	-25.85517883300781	85.02906799316406	-135.4613342285156	-218.7805633544922	27.28240013122559	-211.6500091552734	
